<svg width="18" height="18" viewBox="0 0 18 18" fill="none" xmlns="http://www.w3.org/2000/svg">
<g clip-path="url(#clip0_10_389)">
<path d="M8.99602 1.61753C11.4024 1.61753 11.6813 1.6255 12.6295 1.67331C13.506 1.71315 13.9841 1.85657 14.3028 1.98406C14.7251 2.14343 15.0199 2.34263 15.3386 2.65339C15.6574 2.97211 15.8486 3.26693 16.008 3.68924C16.1275 4.00797 16.2789 4.48606 16.3187 5.36255C16.3586 6.31076 16.3745 6.59761 16.3745 8.99602C16.3745 11.3944 16.3665 11.6813 16.3187 12.6295C16.2789 13.506 16.1355 13.9841 16.008 14.3028C15.8486 14.7251 15.6494 15.0199 15.3386 15.3386C15.0279 15.6574 14.7251 15.8486 14.3028 16.008C13.9841 16.1275 13.506 16.2789 12.6295 16.3187C11.6813 16.3586 11.3944 16.3745 8.99602 16.3745C6.59761 16.3745 6.31076 16.3665 5.36255 16.3187C4.48606 16.2789 4.00797 16.1355 3.68924 16.008C3.26693 15.8486 2.97211 15.6494 2.65339 15.3386C2.33466 15.0199 2.14343 14.7251 1.98406 14.3028C1.86454 13.9841 1.71315 13.506 1.67331 12.6295C1.63347 11.6813 1.61753 11.3944 1.61753 8.99602C1.61753 6.59761 1.6255 6.31076 1.67331 5.36255C1.71315 4.48606 1.85657 4.00797 1.98406 3.68924C2.14343 3.26693 2.34263 2.97211 2.65339 2.65339C2.97211 2.33466 3.26693 2.14343 3.68924 1.98406C4.00797 1.86454 4.48606 1.71315 5.36255 1.67331C6.31076 1.63347 6.59761 1.61753 8.99602 1.61753ZM8.99602 0C6.5498 0 6.24701 0.00796813 5.28287 0.0557769C4.32669 0.0956175 3.67331 0.25498 3.0996 0.478088C2.50996 0.709163 2.00797 1.01195 1.50598 1.51394C1.00398 2.01594 0.701195 2.51793 0.470119 3.10757C0.247012 3.68128 0.0956175 4.33466 0.0557769 5.29084C0.00796813 6.24701 0 6.55777 0 9.00398C0 11.4502 0.00796813 11.753 0.0557769 12.7171C0.0956175 13.6733 0.25498 14.3267 0.470119 14.9004C0.701195 15.49 1.00398 15.992 1.50598 16.494C2.00797 16.996 2.50996 17.2988 3.0996 17.5299C3.67331 17.753 4.32669 17.9044 5.28287 17.9522C6.23904 17.992 6.5498 18.008 8.99602 18.008C11.4422 18.008 11.745 18 12.7092 17.9522C13.6653 17.9124 14.3187 17.753 14.8924 17.5299C15.4821 17.2988 15.9841 16.996 16.4861 16.494C16.988 15.992 17.2908 15.49 17.5219 14.9004C17.745 14.3267 17.8964 13.6733 17.9363 12.7171C17.9761 11.761 17.992 11.4502 17.992 9.00398C17.992 6.55777 17.9841 6.25498 17.9363 5.29084C17.8964 4.33466 17.7371 3.68128 17.5219 3.10757C17.2908 2.51793 16.988 2.01594 16.4861 1.51394C15.9841 1.01195 15.4821 0.709163 14.8924 0.478088C14.3187 0.25498 13.6653 0.103586 12.7092 0.0557769C11.753 0.0159363 11.4422 0 8.99602 0Z" fill="white" fill-opacity="0.8"/>
<path d="M8.99651 4.375C6.44671 4.375 4.375 6.44671 4.375 8.99651C4.375 11.5463 6.44671 13.618 8.99651 13.618C11.5463 13.618 13.618 11.5463 13.618 8.99651C13.618 6.44671 11.5463 4.375 8.99651 4.375ZM8.99651 11.9925C7.33914 11.9925 6.0005 10.6459 6.0005 8.99651C6.0005 7.34711 7.34711 6.0005 8.99651 6.0005C10.6459 6.0005 11.9925 7.34711 11.9925 8.99651C11.9925 10.6459 10.6459 11.9925 8.99651 11.9925Z" fill="white" fill-opacity="0.8"/>
<path d="M14.8841 4.1989C14.8841 4.79651 14.3981 5.28257 13.8005 5.28257C13.2029 5.28257 12.7168 4.79651 12.7168 4.1989C12.7168 3.60129 13.2029 3.11523 13.8005 3.11523C14.3981 3.11523 14.8841 3.60129 14.8841 4.1989Z" fill="white" fill-opacity="0.8"/>
</g>
<defs>
<clipPath id="clip0_10_389">
<rect width="18" height="18" fill="white"/>
</clipPath>
</defs>
</svg>
