<svg width="20" height="14" viewBox="0 0 20 14" fill="none" xmlns="http://www.w3.org/2000/svg">
<g clip-path="url(#clip0_10_395)">
<path d="M19.5885 2.18292C19.3556 1.31901 18.6801 0.647934 17.8183 0.416529C16.2578 0 10 0 10 0C10 0 3.74224 0 2.18168 0.416529C1.32764 0.647934 0.64441 1.32672 0.419255 2.18292C0 3.74105 0 6.99614 0 6.99614C0 6.99614 0 10.2512 0.419255 11.8094C0.652174 12.6733 1.32764 13.3444 2.18944 13.5758C3.75 13.9923 10.0078 13.9923 10.0078 13.9923C10.0078 13.9923 16.2655 13.9923 17.8261 13.5758C18.6879 13.3444 19.3634 12.6656 19.5963 11.8094C20.0155 10.2512 20.0155 6.99614 20.0155 6.99614C20.0155 6.99614 20.0155 3.74105 19.5963 2.18292H19.5885ZM7.95807 9.95041V4.04187L13.1832 6.99614L7.95807 9.95041Z" fill="white" fill-opacity="0.8"/>
</g>
<defs>
<clipPath id="clip0_10_395">
<rect width="20" height="14" fill="white"/>
</clipPath>
</defs>
</svg>
