<svg width="22" height="22" viewBox="0 0 22 22" fill="none" xmlns="http://www.w3.org/2000/svg">
<g opacity="0.6">
<path d="M7.5625 10.5413V9.16634H8.9375V10.5413H7.5625ZM13.0625 10.5413V9.16634H14.4375V10.5413H13.0625ZM2.75 20.1663V12.833H3.66667V9.16634C3.66667 8.15801 3.85764 7.20697 4.23958 6.31322C4.62153 5.41947 5.14479 4.6403 5.80938 3.97572C6.47396 3.31113 7.25313 2.78787 8.14687 2.40592C9.04063 2.02398 9.99167 1.83301 11 1.83301C12.0083 1.83301 12.9594 2.02398 13.8531 2.40592C14.7469 2.78787 15.526 3.31113 16.1906 3.97572C16.8552 4.6403 17.3785 5.41947 17.7604 6.31322C18.1424 7.20697 18.3333 8.15801 18.3333 9.16634V12.833H19.25V20.1663H2.75ZM4.125 18.7913H6.53125V14.208H4.125V18.7913ZM7.90625 18.7913H10.3125V14.208H7.90625V18.7913ZM5.04167 12.833H10.3125V3.25384C8.8 3.43717 7.5434 4.08648 6.54271 5.20176C5.54201 6.31704 5.04167 7.63856 5.04167 9.16634V12.833ZM11.6875 12.833H16.9583V9.16634C16.9583 7.63856 16.458 6.31704 15.4573 5.20176C14.4566 4.08648 13.2 3.43717 11.6875 3.25384V12.833ZM11.6875 18.7913H14.0938V14.208H11.6875V18.7913ZM15.4688 18.7913H17.875V14.208H15.4688V18.7913Z" fill="black"/>
</g>
</svg>
