<svg width="22" height="22" viewBox="0 0 22 22" fill="none" xmlns="http://www.w3.org/2000/svg">
<g opacity="0.6">
<path d="M2.75 19.25V17.875H4.58333V4.125C4.58333 3.75833 4.72083 3.4375 4.99583 3.1625C5.27083 2.8875 5.59167 2.75 5.95833 2.75H16.0417C16.4083 2.75 16.7292 2.8875 17.0042 3.1625C17.2792 3.4375 17.4167 3.75833 17.4167 4.125V17.875H19.25V19.25H2.75ZM16.0417 17.875V4.125H5.95833V17.875H16.0417ZM12.9938 11.7104C13.2145 11.7104 13.3996 11.6357 13.5489 11.4864C13.6982 11.3371 13.7729 11.152 13.7729 10.9313C13.7729 10.7105 13.6982 10.5254 13.5489 10.3761C13.3996 10.2268 13.2145 10.1521 12.9938 10.1521C12.773 10.1521 12.5879 10.2268 12.4386 10.3761C12.2893 10.5254 12.2146 10.7105 12.2146 10.9313C12.2146 11.152 12.2893 11.3371 12.4386 11.4864C12.5879 11.6357 12.773 11.7104 12.9938 11.7104Z" fill="black"/>
</g>
</svg>
