<svg width="22" height="22" viewBox="0 0 22 22" fill="none" xmlns="http://www.w3.org/2000/svg">
<g opacity="0.6">
<path d="M8.45625 11.7104C8.24236 11.7104 8.05521 11.6302 7.89479 11.4698C7.73438 11.3094 7.65417 11.1222 7.65417 10.9083C7.65417 10.6944 7.73438 10.5073 7.89479 10.3469C8.05521 10.1865 8.24236 10.1063 8.45625 10.1063C8.67014 10.1063 8.85729 10.1865 9.01771 10.3469C9.17812 10.5073 9.25833 10.6944 9.25833 10.9083C9.25833 11.1222 9.17812 11.3094 9.01771 11.4698C8.85729 11.6302 8.67014 11.7104 8.45625 11.7104ZM13.5667 11.7104C13.3528 11.7104 13.1656 11.6302 13.0052 11.4698C12.8448 11.3094 12.7646 11.1222 12.7646 10.9083C12.7646 10.6944 12.8448 10.5073 13.0052 10.3469C13.1656 10.1865 13.3528 10.1063 13.5667 10.1063C13.7806 10.1063 13.9677 10.1865 14.1281 10.3469C14.2885 10.5073 14.3688 10.6944 14.3688 10.9083C14.3688 11.1222 14.2885 11.3094 14.1281 11.4698C13.9677 11.6302 13.7806 11.7104 13.5667 11.7104ZM2.75 19.25V17.875H3.80417V4.125C3.80417 3.75833 3.94167 3.4375 4.21667 3.1625C4.49167 2.8875 4.8125 2.75 5.17917 2.75H16.8208C17.1875 2.75 17.5083 2.8875 17.7833 3.1625C18.0583 3.4375 18.1958 3.75833 18.1958 4.125V17.875H19.25V19.25H2.75ZM5.17917 17.875H10.3125V4.125H5.17917V17.875ZM11.6875 17.875H16.8208V4.125H11.6875V17.875Z" fill="black"/>
</g>
</svg>
