<svg width="22" height="22" viewBox="0 0 22 22" fill="none" xmlns="http://www.w3.org/2000/svg">
<g opacity="0.6">
<path d="M6.41667 16.7292H9.16667V12.8333H10.0833V10.3125C10.0833 9.80833 9.90382 9.37674 9.54479 9.01771C9.18576 8.65868 8.75417 8.47917 8.25 8.47917H7.33333C6.82917 8.47917 6.39757 8.65868 6.03854 9.01771C5.67951 9.37674 5.5 9.80833 5.5 10.3125V12.8333H6.41667V16.7292ZM7.79167 7.7C8.14306 7.7 8.44479 7.57396 8.69688 7.32188C8.94896 7.06979 9.075 6.76806 9.075 6.41667C9.075 6.06528 8.94896 5.76354 8.69688 5.51146C8.44479 5.25938 8.14306 5.13333 7.79167 5.13333C7.44028 5.13333 7.13854 5.25938 6.88646 5.51146C6.63438 5.76354 6.50833 6.06528 6.50833 6.41667C6.50833 6.76806 6.63438 7.06979 6.88646 7.32188C7.13854 7.57396 7.44028 7.7 7.79167 7.7ZM11.8021 9.85417H16.3854L14.0938 6.1875L11.8021 9.85417ZM14.0938 15.8125L16.3854 12.1458H11.8021L14.0938 15.8125ZM4.125 19.25C3.75833 19.25 3.4375 19.1125 3.1625 18.8375C2.8875 18.5625 2.75 18.2417 2.75 17.875V4.125C2.75 3.77361 2.8875 3.4566 3.1625 3.17396C3.4375 2.89132 3.75833 2.75 4.125 2.75H17.875C18.2264 2.75 18.5434 2.89132 18.826 3.17396C19.1087 3.4566 19.25 3.77361 19.25 4.125V17.875C19.25 18.2417 19.1087 18.5625 18.826 18.8375C18.5434 19.1125 18.2264 19.25 17.875 19.25H4.125ZM4.125 17.875H17.875V4.125H4.125V17.875Z" fill="black"/>
</g>
</svg>
