<svg width="22" height="22" viewBox="0 0 22 22" fill="none" xmlns="http://www.w3.org/2000/svg">
<g opacity="0.6">
<path d="M17.509 20.167C17.4173 20.167 17.3333 20.1517 17.2569 20.1212C17.1805 20.0906 17.1041 20.0371 17.0277 19.9607L11.4819 14.4149C11.4055 14.3385 11.352 14.2621 11.3215 14.1857C11.2909 14.1094 11.2757 14.0253 11.2757 13.9337C11.2757 13.842 11.2909 13.758 11.3215 13.6816C11.352 13.6052 11.4055 13.5288 11.4819 13.4524L13.4298 11.5045C13.5062 11.4281 13.5826 11.3746 13.659 11.3441C13.7354 11.3135 13.8194 11.2982 13.9111 11.2982C14.0027 11.2982 14.0868 11.3135 14.1631 11.3441C14.2395 11.3746 14.3159 11.4281 14.3923 11.5045L19.9382 17.0503C20.0145 17.1267 20.068 17.2031 20.0986 17.2795C20.1291 17.3559 20.1444 17.4399 20.1444 17.5316C20.1444 17.6232 20.1291 17.7073 20.0986 17.7837C20.068 17.86 20.0145 17.9364 19.9382 18.0128L17.9902 19.9607C17.9138 20.0371 17.8375 20.0906 17.7611 20.1212C17.6847 20.1517 17.6006 20.167 17.509 20.167ZM17.509 18.517L18.4944 17.5316L13.9111 12.9482L12.9257 13.9337L17.509 18.517ZM4.4694 20.167C4.37773 20.167 4.28989 20.1517 4.20586 20.1212C4.12183 20.0906 4.04162 20.0371 3.96523 19.9607L2.04023 18.0357C1.96385 17.9594 1.91037 17.8791 1.87982 17.7951C1.84926 17.7111 1.83398 17.6232 1.83398 17.5316C1.83398 17.4399 1.84926 17.3559 1.87982 17.2795C1.91037 17.2031 1.96385 17.1267 2.04023 17.0503L7.19648 11.8941H9.1444L10.0152 11.0232L6.00482 7.01283H4.69857L1.83398 4.14824L4.10273 1.87949L6.96732 4.74408V6.05033L10.9777 10.0607L13.9569 7.08158L12.4215 5.54616L13.7048 4.26283H11.1152L10.7027 3.85033L13.6361 0.916992L14.0486 1.32949V3.91908L15.3319 2.63574L19.2048 6.50866C19.434 6.73783 19.6135 7.00137 19.7434 7.29928C19.8732 7.5972 19.9382 7.91421 19.9382 8.25033C19.9382 8.55588 19.8885 8.84998 19.7892 9.13262C19.6899 9.41526 19.5486 9.67116 19.3652 9.90033L17.4173 7.95241L16.134 9.23574L14.9423 8.04408L10.1069 12.8795V14.8045L4.95065 19.9607C4.87426 20.0371 4.79787 20.0906 4.72148 20.1212C4.6451 20.1517 4.56107 20.167 4.4694 20.167ZM4.4694 18.517L9.05273 13.9337V12.9482H8.06732L3.48398 17.5316L4.4694 18.517ZM4.4694 18.517L3.48398 17.5316L3.98815 18.0128L4.4694 18.517Z" fill="black"/>
</g>
</svg>
