<svg width="22" height="22" viewBox="0 0 22 22" fill="none" xmlns="http://www.w3.org/2000/svg">
<g opacity="0.6">
<path d="M1.83398 18.3337V8.70866C1.83398 8.34199 1.97148 8.02116 2.24648 7.74616C2.52148 7.47116 2.84232 7.33366 3.20898 7.33366H6.41732V5.04199C6.41732 4.67533 6.55482 4.35449 6.82982 4.07949C7.10482 3.80449 7.42565 3.66699 7.79232 3.66699H14.209C14.5757 3.66699 14.8965 3.80449 15.1715 4.07949C15.4465 4.35449 15.584 4.67533 15.584 5.04199V7.33366H18.7923C19.159 7.33366 19.4798 7.47116 19.7548 7.74616C20.0298 8.02116 20.1673 8.34199 20.1673 8.70866V18.3337H1.83398ZM6.87565 13.5212V14.8962H5.50065V13.5212H3.20898V16.9587H18.7923V13.5212H16.5007V14.8962H15.1257V13.5212H6.87565ZM3.20898 8.70866V12.1462H5.50065V10.7712H6.87565V12.1462H15.1257V10.7712H16.5007V12.1462H18.7923V8.70866H3.20898ZM7.79232 7.33366H14.209V5.04199H7.79232V7.33366Z" fill="black"/>
</g>
</svg>
