<svg width="22" height="22" viewBox="0 0 22 22" fill="none" xmlns="http://www.w3.org/2000/svg">
<g opacity="0.6">
<path d="M10.9764 17.233C11.2209 17.233 11.408 17.191 11.5379 17.107C11.6678 17.0229 11.7327 16.8969 11.7327 16.7288C11.7327 16.5608 11.6678 16.4309 11.5379 16.3393C11.408 16.2476 11.2132 16.2018 10.9535 16.2018C10.3118 16.2018 9.65872 15.9993 8.99414 15.5945C8.32956 15.1896 7.9056 14.4754 7.72227 13.4518C7.69171 13.3143 7.62296 13.2035 7.51602 13.1195C7.40907 13.0354 7.29449 12.9934 7.17227 12.9934C7.00421 12.9934 6.87435 13.0584 6.78268 13.1882C6.69102 13.3181 6.66046 13.4518 6.69102 13.5893C6.92018 14.8726 7.46254 15.8007 8.3181 16.3736C9.17365 16.9465 10.0598 17.233 10.9764 17.233ZM10.9993 20.1663C8.90629 20.1663 7.16081 19.4483 5.76289 18.0122C4.36497 16.5761 3.66602 14.7886 3.66602 12.6497C3.66602 11.1219 4.27331 9.46044 5.48789 7.6653C6.70247 5.87016 8.53963 3.92606 10.9993 1.83301C13.4591 3.92606 15.2962 5.87016 16.5108 7.6653C17.7254 9.46044 18.3327 11.1219 18.3327 12.6497C18.3327 14.7886 17.6337 16.5761 16.2358 18.0122C14.8379 19.4483 13.0924 20.1663 10.9993 20.1663ZM10.9993 18.7913C12.7105 18.7913 14.1313 18.207 15.2618 17.0382C16.3924 15.8695 16.9577 14.4066 16.9577 12.6497C16.9577 11.4427 16.4497 10.0715 15.4337 8.53613C14.4178 7.00072 12.9396 5.37745 10.9993 3.66634C9.05907 5.37745 7.58095 7.00072 6.56497 8.53613C5.549 10.0715 5.04102 11.4427 5.04102 12.6497C5.04102 14.4066 5.60629 15.8695 6.73685 17.0382C7.8674 18.207 9.28824 18.7913 10.9993 18.7913Z" fill="black"/>
</g>
</svg>
